PathFileType	4	(X/Y/Z)	/Users/itak/Documents/Research/Walk-IL/dataset/trc/00173_00008.trc
DataRate	CameraRate	NumFrames	NumMarkers	Units	OrigDataRate	OrigDataStartFrame	OrigNumFrames
100.000000	100.000000	4	53	mm	100.000000	385	617
Frame#	Time	RPSI			LPSI			L3			STRN			T10			C7			CLAV			RBAK			LBAK			LSHO			LUPA			LAEL			LAOL			LWTS			LWPS			LFRA			LIFD			LHPS			LHTS			RSHO			RUPA			RAEL			RAOL			RWTS			RWPS			RFRA			RIFD			RHTS			RHPS			RBHD			LFHD			RFHD			LBHD			LHIP			RHIP			RASI			LASI			LKNE			LTHI			LANK			LTIP			LTOE			LMT1			LMT5			LHEE			RKNE			RTHI			RANK			RTIP			RTOE			RMT1			RMT5			RHEE			
		X1	Y1	Z1	X2	Y2	Z2	X3	Y3	Z3	X4	Y4	Z4	X5	Y5	Z5	X6	Y6	Z6	X7	Y7	Z7	X8	Y8	Z8	X9	Y9	Z9	X10	Y10	Z10	X11	Y11	Z11	X12	Y12	Z12	X13	Y13	Z13	X14	Y14	Z14	X15	Y15	Z15	X16	Y16	Z16	X17	Y17	Z17	X18	Y18	Z18	X19	Y19	Z19	X20	Y20	Z20	X21	Y21	Z21	X22	Y22	Z22	X23	Y23	Z23	X24	Y24	Z24	X25	Y25	Z25	X26	Y26	Z26	X27	Y27	Z27	X28	Y28	Z28	X29	Y29	Z29	X30	Y30	Z30	X31	Y31	Z31	X32	Y32	Z32	X33	Y33	Z33	X34	Y34	Z34	X35	Y35	Z35	X36	Y36	Z36	X37	Y37	Z37	X38	Y38	Z38	X39	Y39	Z39	X40	Y40	Z40	X41	Y41	Z41	X42	Y42	Z42	X43	Y43	Z43	X44	Y44	Z44	X45	Y45	Z45	X46	Y46	Z46	X47	Y47	Z47	X48	Y48	Z48	X49	Y49	Z49	X50	Y50	Z50	X51	Y51	Z51	X52	Y52	Z52	X53	Y53	Z53	

386	3.85	-742.7603759765625	1064.905517578125	270.2354736328125	-751.6951904296875	1063.146606445312	148.5829162597656	-740.9700317382812	1105.011962890625	208.0370483398438	-450.718505859375	1281.456787109375	177.8979187011719	-748.3843383789062	1264.001586914062	183.7556762695312	-654.0977172851562	1522.703002929688	157.9867858886719	-466.0885620117188	1397.781127929688	163.8313903808594	-737.73095703125	1360.730224609375	274.9644775390625	-664.6854248046875	1497.1298828125	56.89134216308594	-589.1129760742188	1472.369384765625	-20.92321586608887	-633.1555786132812	1340.790649414062	-90.08689117431641	-633.4300537109375	1120.829833984375	-97.13639068603516	-682.025634765625	1111.965087890625	-23.78690719604492	-525.4315185546875	891.24072265625	-49.04557800292969	-605.7498168945312	867.6148071289062	-89.10557556152344	-621.4014892578125	1009.206237792969	-103.7343292236328	-507.2651062011719	708.9371337890625	-17.93411636352539	-583.3489379882812	798.5352783203125	-80.7530517578125	-512.7560424804688	812.7501220703125	-65.75614929199219	-592.4633178710938	1500.460083007812	339.3069763183594	-617.5684204101562	1437.961303710938	410.0463256835938	-656.7463989257812	1151.504638671875	475.2637939453125	-659.0584716796875	1141.778686523438	376.788818359375	-495.5309753417969	939.9341430664062	460.8143920898438	-568.138427734375	911.5355834960938	503.5186157226562	-628.3977661132812	1078.769653320312	494.6031494140625	-454.9950866699219	758.0230102539062	428.1151428222656	-457.8507690429688	849.953857421875	466.170654296875	-531.2188720703125	831.7560424804688	497.1960754394531	-590.1100463867188	1668.476684570312	240.399169921875	-436.1826171875	1724.46435546875	97.91057586669922	-424.2224731445312	1717.870971679688	227.1165771484375	-610.2852783203125	1682.786499023438	104.3311538696289	-667.2286987304688	988.2733764648438	25.40286827087402	-589.09912109375	1016.56396484375	389.5593872070312	-511.3644714355469	1034.89599609375	328.0688171386719	-534.3386840820312	1016.641723632812	69.50048065185547	-628.177001953125	485.1345825195312	67.18946075439453	-632.3987426757812	629.97216796875	39.50884246826172	-808.3130493164062	44.18339538574219	98.66333770751953	-713.1314697265625	267.002197265625	72.01696014404297	-590.48291015625	42.38118743896484	106.8460922241211	-632.870361328125	45.28404235839844	156.7641448974609	-703.8186645507812	28.72978591918945	47.29409408569336	-853.1707153320312	54.55976104736328	172.7734832763672	-400.8034973144531	552.0501708984375	384.6284790039062	-482.6183471679688	810.4649658203125	402.892822265625	-445.7622375488281	55.6314582824707	387.9884948730469	-375.8465576171875	428.8912963867188	379.5144348144531	-229.0427703857422	93.08921051025391	409.4875793457031	-269.4761962890625	83.10103607177734	352.0218200683594	-344.1174926757812	60.33524703979492	448.8255615234375	-479.8652954101562	52.50572204589844	309.5219116210938	
387	3.86	-748.8899536132812	1066.69873046875	270.1769104003906	-758.07275390625	1064.7890625	148.5430908203125	-747.2981567382812	1106.708129882812	207.9054718017578	-457.2505493164062	1283.447631835938	177.4761352539062	-754.8140869140625	1265.656494140625	183.4483489990234	-660.8434448242188	1524.386596679688	157.3710327148438	-472.7613525390625	1399.724975585938	163.2839508056641	-744.1373901367188	1362.484008789062	274.5489501953125	-671.4623413085938	1498.935546875	56.32560729980469	-595.845458984375	1474.02294921875	-21.40535545349121	-640.1368408203125	1342.7099609375	-90.79971313476562	-641.8643798828125	1122.874755859375	-97.99394226074219	-690.1405639648438	1114.244750976562	-24.37955093383789	-536.3385009765625	891.7553100585938	-52.13010787963867	-617.7607421875	869.3060302734375	-90.77767944335938	-631.3147583007812	1011.193420410156	-105.0745620727539	-520.0687866210938	709.1412353515625	-21.58453178405762	-596.1446533203125	799.8980102539062	-83.00284576416016	-525.0352172851562	813.0692138671875	-69.21894836425781	-599.17041015625	1502.5537109375	338.6304321289062	-624.1815795898438	1440.19677734375	409.502197265625	-663.1210327148438	1153.728271484375	474.7616882324219	-665.2000122070312	1144.037475585938	376.5592041015625	-502.3603820800781	941.7025756835938	460.0390930175781	-574.9266967773438	913.651123046875	503.042724609375	-634.8112182617188	1080.97412109375	494.1255798339844	-462.6797790527344	759.4991455078125	427.6535949707031	-465.0230407714844	851.5714111328125	465.4454956054688	-538.3534545898438	833.7571411132812	496.8103332519531	-596.7186279296875	1670.484741210938	239.5025177001953	-442.9124145507812	1726.038696289062	96.72867584228516	-430.8323364257812	1719.713989257812	225.9341888427734	-617.057373046875	1684.505004882812	103.4276809692383	-674.0167846679688	989.758056640625	25.29141235351562	-595.008544921875	1018.611206054688	389.2226257324219	-517.5294189453125	1036.91845703125	327.4609680175781	-541.0111083984375	1018.322082519531	69.04950714111328	-632.1061401367188	486.6138000488281	67.00080108642578	-637.646728515625	631.3914184570312	39.25222396850586	-808.3224487304688	44.11029052734375	98.71832275390625	-715.1878662109375	267.8623352050781	71.89826202392578	-590.4409790039062	42.40123748779297	106.7543334960938	-632.8099975585938	45.3624153137207	156.6876678466797	-703.8106689453125	28.72330856323242	47.27896499633789	-853.0859375	54.47975921630859	172.8482513427734	-406.2754516601562	553.63232421875	384.2583618164062	-488.3775024414062	812.6455688476562	402.659912109375	-467.6402587890625	58.07012557983398	387.7727661132812	-384.6663818359375	429.3842468261719	379.0079956054688	-249.7974395751953	89.97872924804688	408.0093994140625	-290.7498168945312	81.10179901123047	350.81396484375	-365.4417724609375	60.17578125	447.9017333984375	-502.1733093261719	56.28280258178711	309.5719604492188	
388	3.87	-754.830078125	1068.386962890625	270.3218688964844	-764.344970703125	1066.295288085938	148.7010955810547	-753.4601440429688	1108.2900390625	207.9701232910156	-463.7011413574219	1285.325317382812	177.0493621826172	-761.1465454101562	1267.134887695312	183.3391265869141	-667.5853271484375	1525.928100585938	156.9113464355469	-479.3872375488281	1401.54541015625	162.7868347167969	-750.451171875	1364.062255859375	274.3162536621094	-678.2774047851562	1500.547729492188	55.93406295776367	-602.6594848632812	1475.576538085938	-21.76983451843262	-647.1741943359375	1344.521118164062	-91.3609619140625	-650.1649169921875	1124.83056640625	-98.82072448730469	-698.1870727539062	1116.387329101562	-25.01086807250977	-547.14013671875	892.2289428710938	-55.11035919189453	-629.533447265625	870.9970092773438	-92.56587982177734	-641.026611328125	1013.136657714844	-106.4110260009766	-532.9452514648438	709.2882080078125	-25.12044143676758	-608.7756958007812	801.2559204101562	-85.33147430419922	-537.211669921875	813.351806640625	-72.53746032714844	-605.7902221679688	1504.487915039062	338.0751037597656	-630.7008666992188	1442.27392578125	409.0799255371094	-669.4536743164062	1155.815307617188	474.4310913085938	-671.2271728515625	1146.125732421875	376.5215759277344	-509.094970703125	943.3764038085938	459.6391906738281	-581.6793212890625	915.6216430664062	502.7725524902344	-641.192626953125	1083.035400390625	493.8337097167969	-470.0622253417969	760.9171142578125	427.6528015136719	-472.0499572753906	853.122314453125	465.184326171875	-545.3933715820312	835.6334228515625	496.6995544433594	-603.375244140625	1672.390502929688	238.7114105224609	-449.6602172851562	1727.516479492188	95.67973327636719	-437.4808654785156	1721.474487304688	224.8869476318359	-623.8487548828125	1686.105712890625	102.6260528564453	-680.8659057617188	991.1076049804688	25.26955986022949	-600.638916015625	1020.521545410156	388.9009399414062	-523.4396362304688	1038.755615234375	326.7743835449219	-547.640625	1019.8505859375	68.57663726806641	-636.1441040039062	487.9987487792969	66.93525695800781	-642.9915771484375	632.6939697265625	39.1065559387207	-808.350341796875	43.98542785644531	98.80349731445312	-717.3135986328125	268.6358337402344	71.87587738037109	-590.4013061523438	42.42220306396484	106.6719512939453	-632.7562866210938	45.42974090576172	156.6249694824219	-703.806884765625	28.72533416748047	47.27703094482422	-853.0105590820312	54.27948760986328	172.9616394042969	-411.8472595214844	554.9351196289062	383.9219665527344	-493.8927612304688	814.7427368164062	402.2631530761719	-489.8387756347656	60.98496246337891	387.9273986816406	-393.6814575195312	429.7486877441406	378.515625	-271.0613708496094	87.04053497314453	406.529052734375	-312.5877380371094	79.31214141845703	349.6590881347656	-387.1520690917969	60.29769134521484	447.1521301269531	-524.9917602539062	60.45716094970703	310.0055847167969	
389	3.88	-760.6102905273438	1069.926879882812	270.6450805664062	-770.51611328125	1067.63671875	149.0338592529297	-759.4778442382812	1109.724365234375	208.2132568359375	-470.0822448730469	1287.052978515625	176.6037445068359	-767.3885498046875	1268.421752929688	183.4208679199219	-674.3179931640625	1527.309326171875	156.6155548095703	-485.9730834960938	1403.208740234375	162.3240509033203	-756.6732788085938	1365.446411132812	274.2698364257812	-685.1317138671875	1501.966430664062	55.71821975708008	-609.5677490234375	1477.012573242188	-22.02078628540039	-654.2957763671875	1346.201416015625	-91.76451873779297	-658.3472900390625	1126.680541992188	-99.61270141601562	-706.1751708984375	1118.367553710938	-25.66092681884766	-557.828125	892.6534423828125	-57.9407958984375	-641.0150146484375	872.6726684570312	-94.49505615234375	-650.5267944335938	1015.020324707031	-107.7455215454102	-545.876708984375	709.3746337890625	-28.56081581115723	-621.1793823242188	802.6050415039062	-87.76974487304688	-549.2305297851562	813.6069946289062	-75.69158935546875	-612.29736328125	1506.232055664062	337.6430358886719	-637.0990600585938	1444.159912109375	408.780517578125	-675.739990234375	1157.742553710938	474.287353515625	-677.22412109375	1148.019287109375	376.6357421875	-515.7340698242188	944.93505859375	459.5877685546875	-588.3776245117188	917.4215698242188	502.7152404785156	-647.5281372070312	1084.932006835938	493.7395324707031	-477.1458740234375	762.2647094726562	428.0364990234375	-478.9176025390625	854.587890625	465.3345947265625	-552.3125	837.3557739257812	496.8429870605469	-610.0810546875	1674.154541015625	238.0298767089844	-456.4409790039062	1728.883544921875	94.76026916503906	-444.1742553710938	1723.135009765625	223.9702911376953	-630.6668090820312	1687.552490234375	101.928840637207	-687.6961669921875	992.2926025390625	25.35779762268066	-606.028076171875	1022.249694824219	388.6098937988281	-529.1286010742188	1040.383422851562	326.0556335449219	-554.2196044921875	1021.206359863281	68.10337066650391	-640.2842407226562	489.2628784179688	66.99853515625	-648.3746337890625	633.85302734375	39.09127807617188	-808.3988037109375	43.79941940307617	98.91146087646484	-719.500244140625	269.2968139648438	71.9505615234375	-590.3665771484375	42.44257736206055	106.6037521362305	-632.7158813476562	45.48380661010742	156.5816802978516	-703.8065795898438	28.73545074462891	47.28680038452148	-852.94873046875	53.93978500366211	173.1095123291016	-417.5339965820312	555.91943359375	383.6134643554688	-499.1769714355469	816.682373046875	401.7046508789062	-512.3235473632812	64.38177490234375	388.45458984375	-402.8987731933594	429.9573059082031	378.0519104003906	-292.8128356933594	84.30619049072266	405.1393737792969	-334.939208984375	77.75035858154297	348.6319885253906	-409.2380981445312	60.72000503540039	446.6188354492188	-548.2098999023438	65.03620910644531	310.7861328125	
